# xmcd
#
# Track frame offsets: 
#        150
#        12727
#        25009
#        45585
#        62416
#        74369
#        87296
#        99208
#        114588
#        128664
#        140759
#        154476
#
# Disc length: 2225 seconds
#
# Revision: 4
# Processed by: cddbd v1.5.2PL0 Copyright (c) Steve Scherf et al.
# Submitted via: ExactAudioCopy v0.95a5
#
DISCID=9e08af0c
DTITLE=ELVIS PRESLEY - From Elvis In Memphis [RCA VICTOR LSP-4155]
DYEAR=1969
DGENRE=Rock and Roll
TTITLE0=Wearin' That Loved On Look (Dallas Frazier and A.L. Owens)
TTITLE1=Only The Strong Survive (Jerry Butler, Kenny Gamble, Leon Huff
TTITLE1=)
TTITLE2=I'll Hold You in My Heart (Till I Can Hold You in My Arms) (Ed
TTITLE2=dy Arnold, Thomas Dilbeck, Vaughan Horton)
TTITLE3=Long Black Limousine (Bobby George and Vern Stovall)
TTITLE4=It Keeps Right On A-Hurtin' (Johnny Tillotson)
TTITLE5=I'm Movin' On (Hank Snow)
TTITLE6=Power Of My Love (Bernie Baum, Bill Giant, Florence Kaye)
TTITLE7=Gentle On My Mind (John Hartford)
TTITLE8=After Loving You (Janet Lantz and Eddie Miller)
TTITLE9=Thue Love Travels On A Gravel Road (Dallas Frazier and A.L. Ow
TTITLE9=ens)
TTITLE10=Any Day Now (Burt Bacharach and Bob Hilliard)
TTITLE11=In The Ghetto (Mac Davis)
EXTD=
EXTT0=
EXTT1=
EXTT2=
EXTT3=
EXTT4=
EXTT5=
EXTT6=
EXTT7=
EXTT8=
EXTT9=
EXTT10=
EXTT11=
PLAYORDER=
